<?xml version="1.0" encoding="utf-8"?>
<!-- Generator: Adobe Illustrator 16.0.0, SVG Export Plug-In . SVG Version: 6.00 Build 0)  -->
<!DOCTYPE svg PUBLIC "-//W3C//DTD SVG 1.1//EN" "http://www.w3.org/Graphics/SVG/1.1/DTD/svg11.dtd">
<svg version="1.1" id="Layer_1" xmlns="http://www.w3.org/2000/svg" xmlns:xlink="http://www.w3.org/1999/xlink" x="0px" y="0px"
	 width="22.676px" height="22.676px" viewBox="0 0 22.676 22.676" enable-background="new 0 0 22.676 22.676" xml:space="preserve">
<g display="none">
	
		<rect x="5.741" y="5.743" transform="matrix(0.7071 -0.7071 0.7071 0.7071 -4.6975 11.338)" display="inline" opacity="0.5" fill="#FFFFFF" enable-background="new    " width="11.193" height="11.193"/>
	<path display="inline" fill="#FFFFFF" d="M17.723,6.172l-1.216-1.219l-1.519,1.52l-1.217-1.218l1.518-1.517l-1.217-1.219
		l-1.518,1.52l-0.917-0.917c-0.08-0.079-0.188-0.124-0.301-0.124c-0.113,0.001-0.221,0.044-0.301,0.124L10.12,4.037L8.605,2.52
		L7.387,3.735l1.52,1.518L7.69,6.47L6.172,4.953L4.954,6.169l1.52,1.518L5.255,8.904L3.739,7.387l-1.22,1.216l1.52,1.518
		l-0.915,0.915c-0.166,0.166-0.166,0.436,0,0.602l0.915,0.917l-1.518,1.521l1.217,1.216l1.519-1.521l1.217,1.22L4.955,16.51
		l1.218,1.217l1.518-1.519l1.215,1.217l-1.517,1.521l1.216,1.219l1.518-1.521l0.914,0.914c0.08,0.079,0.189,0.123,0.301,0.125
		c0.113,0,0.222-0.047,0.301-0.125l0.916-0.916l1.521,1.521l1.217-1.221l-1.52-1.519l1.218-1.217l1.521,1.519l1.217-1.218
		l-1.52-1.521l1.216-1.215l1.521,1.519l1.22-1.216l-1.521-1.52l0.914-0.917c0.082-0.083,0.123-0.192,0.123-0.301
		c-0.002-0.109-0.041-0.218-0.123-0.302l-0.916-0.914l1.521-1.519l-1.223-1.218l-1.519,1.521L16.206,7.69L17.723,6.172z
		 M19.018,11.339l-7.68,7.679l-7.677-7.681l7.677-7.678L19.018,11.339z"/>
</g>
<path fill="#8345C4" d="M22.676,19.682c0,1.652-1.342,2.994-2.994,2.994H2.996C1.342,22.676,0,21.334,0,19.682V0h19.682
	c1.652,0,2.994,1.342,2.994,2.996V19.682z"/>
<g>
	<path opacity="0.5" fill="#FFFFFF" enable-background="new    " d="M19.885,18.252C19.961,18.313,20.164,18.477,19.885,18.252
		c-1.473-1.176-2.623-2.785-2.629-4.734c-0.008-2.038,1.08-3.799,2.008-5.535c0.443-0.83,0.906-1.751,0.859-2.72
		c-0.041-0.862-0.52-1.593-1.195-2.103c-1.479-1.117-3.701-0.807-4.395,0.649c0.018,0.009-0.303,0.501-0.467,0.75L13.518,4.27
		L12.52,6.123L10.937,6.6L9.304,9.628l4.643,2.45l1.631-3.03l-0.48-1.567l0.998-1.851l-0.561-0.296
		C15.691,5.081,16,4.582,16.002,4.583c0.271-0.405,0.764-0.361,1.121-0.326c0.963,0.086,1.373,0.957,1.082,1.787
		c-0.307,0.874-0.834,1.672-1.268,2.484c-0.511,0.965-0.957,1.968-1.22,3.031c-0.536,2.177-0.145,4.384,1.203,6.191
		c0.338,0.457,0.726,0.877,1.138,1.268c0.299,0.277,0.659,0.697,1.08,0.785C20.023,19.984,20.596,18.828,19.885,18.252z
		 M13.58,10.886l-3.071-1.621l0.418-0.777L14,10.108L13.58,10.886z"/>
	<path fill="#FFFFFF" d="M2.791,4.424C2.715,4.363,2.512,4.199,2.791,4.424C4.264,5.601,5.414,7.21,5.42,9.158
		c0.007,2.038-1.081,3.801-2.009,5.535c-0.443,0.83-0.906,1.752-0.858,2.721c0.041,0.861,0.52,1.594,1.194,2.104
		c1.479,1.115,3.701,0.808,4.396-0.649c-0.019-0.009,0.303-0.5,0.467-0.748l0.548,0.289l0.998-1.854l1.584-0.477l1.631-3.029
		l-4.642-2.451l-1.632,3.031l0.481,1.566L6.58,17.047l0.562,0.295c-0.156,0.254-0.465,0.754-0.468,0.752
		c-0.271,0.404-0.764,0.361-1.121,0.326c-0.963-0.086-1.373-0.957-1.081-1.787c0.307-0.873,0.834-1.672,1.268-2.484
		c0.51-0.965,0.957-1.967,1.219-3.031C7.496,8.94,7.103,6.734,5.756,4.928C5.416,4.47,5.03,4.05,4.617,3.658
		c-0.299-0.277-0.66-0.696-1.079-0.784C2.653,2.691,2.08,3.849,2.791,4.424z M9.096,11.791l3.072,1.622l-0.419,0.776l-3.073-1.621
		L9.096,11.791z"/>
</g>
</svg>
